<?xml version="1.0" encoding="UTF-8"?>
<svg enable-background="new 0 0 512 512" version="1.1" viewBox="0 0 512 512" xml:space="preserve" xmlns="http://www.w3.org/2000/svg">
<path d="m488.73 66.494h-465.45c-12.853 0-23.273 10.42-23.273 23.273v332.47c0 12.853 10.42 23.273 23.273 23.273h465.45c12.853 0 23.273-10.42 23.273-23.273v-332.47c0-12.853-10.42-23.273-23.273-23.273z" fill="#5286F9"/>
<path d="m273.78 189.77c5.115 5.86 9.57 12.31 13.236 19.242 7.427 14.041 11.655 30.026 11.655 46.986s-4.228 32.943-11.655 46.986c-3.666 6.932-8.121 13.38-13.236 19.24-5.264 6.031-11.23 11.427-17.776 16.069 16.454 11.664 36.523 18.553 58.182 18.553 55.608 0 100.85-45.241 100.85-100.85s-45.241-100.85-100.85-100.85c-21.659 0-41.728 6.886-58.182 18.553 6.544 4.642 12.51 10.039 17.776 16.068z" fill="#FFB655"/>
<path d="m287.01 209.02c-3.666-6.934-8.121-13.382-13.236-19.242-5.267-6.031-11.231-11.425-17.776-16.066-16.452-11.667-36.523-18.553-58.182-18.553-55.608 0-100.85 45.241-100.85 100.85s45.241 100.85 100.85 100.85c21.659 0 41.73-6.887 58.182-18.553 6.546-4.641 12.51-10.038 17.776-16.067 5.115-5.86 9.57-12.31 13.236-19.24 7.427-14.043 11.655-30.028 11.655-46.986 0-16.964-4.228-32.948-11.655-46.989z" fill="#D8143A"/>
<path d="m197.82 356.85c-55.608 0-100.85-45.241-100.85-100.85s45.241-100.85 100.85-100.85c21.659 0 41.728 6.886 58.182 18.553v-107.21h-232.73c-12.853 0-23.273 10.42-23.273 23.273v332.47c0 12.853 10.42 23.273 23.273 23.273h232.73v-107.21c-16.454 11.666-36.523 18.555-58.182 18.555z" fill="#3D6DEB"/>
</svg>
