<?xml version="1.0" encoding="UTF-8"?>
<svg enable-background="new 0 0 512 512" version="1.1" viewBox="0 0 512 512" xml:space="preserve" xmlns="http://www.w3.org/2000/svg">
<path d="m512 402.28c0 16.716-13.55 30.267-30.265 30.267h-451.47c-16.715 0-30.265-13.553-30.265-30.267v-292.56c0-16.716 13.55-30.266 30.265-30.266h451.47c16.716 0 30.265 13.551 30.265 30.266l1e-3 292.56z" fill="#E7E8E3"/>
<rect y="148.13" width="512" height="72.01" fill="#34495E"/>
<rect y="220.16" width="512" height="44.555" fill="#fff"/>
<path d="m21.517 402.28v-292.56c0-16.716 13.552-30.266 30.267-30.266h-21.52c-16.714 0-30.264 13.552-30.264 30.266v292.56c0 16.716 13.55 30.267 30.265 30.267h21.52c-16.715 0-30.268-13.553-30.268-30.267z" enable-background="new" fill="#202121" opacity=".15"/>
<g fill="#fff">
	<path d="m160.06 322.72h-104.63c-4.611 0-8.348-3.736-8.348-8.348 0-4.611 3.736-8.348 8.348-8.348h104.63c4.611 0 8.348 3.736 8.348 8.348s-3.737 8.348-8.348 8.348z"/>
	<path d="m160.06 357.42h-104.63c-4.611 0-8.348-3.736-8.348-8.348s3.736-8.348 8.348-8.348h104.63c4.611 0 8.348 3.736 8.348 8.348s-3.737 8.348-8.348 8.348z"/>
	<path d="m160.06 392.12h-104.63c-4.611 0-8.348-3.736-8.348-8.348 0-4.611 3.736-8.348 8.348-8.348h104.63c4.611 0 8.348 3.736 8.348 8.348 0 4.61-3.737 8.348-8.348 8.348z"/>
</g>
</svg>
